<?xml version="1.0" encoding="utf-8"?>
<!-- Generator: Adobe Illustrator 21.0.0, SVG Export Plug-In . SVG Version: 6.00 Build 0)  -->
<svg version="1.1" xmlns="http://www.w3.org/2000/svg" xmlns:xlink="http://www.w3.org/1999/xlink" x="0px" y="0px"
	 viewBox="0 0 800 800" style="enable-background:new 0 0 800 800;" xml:space="preserve">
<style type="text/css">
	.st0{fill-rule:evenodd;clip-rule:evenodd;fill:#FFFFFF;}
</style>
<g id="_x31_3">
	<g>
		<g>
			<path class="st0" d="M616.8,400c0-119.7-97-216.8-216.8-216.8c-119.7,0-216.8,97-216.8,216.8c0,119.7,97,216.8,216.8,216.8
				C519.7,616.8,616.8,519.7,616.8,400L616.8,400z M612.7,153.8c-19.3,0-34.9,15.7-34.9,34.9c0,19.3,15.5,34.9,34.9,34.9
				c19.2,0,34.9-15.5,34.9-34.9C647.5,169.5,631.9,153.8,612.7,153.8L612.7,153.8z M222.8,103.7h354.4
				c65.7,0,119.1,53.6,119.1,119.1v354.4c0,65.7-53.5,119.2-119.1,119.2H222.8c-65.5,0-119.2-53.5-119.2-119.2V222.8
				C103.7,157.3,157.3,103.7,222.8,103.7L222.8,103.7z M577.2,64H222.8C135.5,64,64,135.5,64,222.8v354.4
				c0,87.5,71.5,158.9,158.9,158.9h354.4c87.5,0,158.9-71.4,158.9-158.9V222.8C736,135.5,664.7,64,577.2,64L577.2,64z M228.2,400
				c0-94.8,76.9-171.8,171.8-171.8S571.8,305.2,571.8,400c0,94.8-76.9,171.8-171.8,171.8S228.2,494.8,228.2,400L228.2,400z"/>
		</g>
	</g>
</g>
<g id="Layer_1">
</g>
</svg>
